<svg width="1200" height="760" viewBox="0 0 1200 760" fill="none" xmlns="http://www.w3.org/2000/svg">
  <defs>
    <linearGradient id="card-bg" x1="120" y1="90" x2="1088" y2="670" gradientUnits="userSpaceOnUse">
      <stop stop-color="#F5F1EC"/>
      <stop offset="0.42" stop-color="#D5CEC8"/>
      <stop offset="1" stop-color="#9A918A"/>
    </linearGradient>
    <linearGradient id="card-shine" x1="190" y1="80" x2="700" y2="600" gradientUnits="userSpaceOnUse">
      <stop stop-color="white" stop-opacity="0.62"/>
      <stop offset="1" stop-color="white" stop-opacity="0"/>
    </linearGradient>
  </defs>
  <rect width="1200" height="760" fill="#F6F2ED"/>
  <rect x="92" y="82" width="1016" height="596" rx="34" fill="url(#card-bg)"/>
  <rect x="92" y="82" width="1016" height="596" rx="34" fill="url(#card-shine)"/>
  <rect x="92.75" y="82.75" width="1014.5" height="594.5" rx="33.25" stroke="#B8AEA6" stroke-opacity="0.72" stroke-width="1.5"/>
  <text x="156" y="182" fill="#B4AAA3" font-size="48" font-family="Georgia, serif" letter-spacing="5">SANGRIA</text>
  <text x="600" y="368" fill="#F6F2ED" fill-opacity="0.86" font-size="86" text-anchor="middle" font-family="Georgia, serif" letter-spacing="5">GIFT CARD</text>
  <text x="600" y="468" fill="#FFF8F2" fill-opacity="0.9" font-size="76" text-anchor="middle" font-family="Georgia, serif">$100.000</text>
  <path d="M1015 152C1040 134 1077 143 1090 170C1102 197 1084 230 1048 248C1041 212 1033 181 1015 152Z" fill="#EAE2DB" fill-opacity="0.78"/>
  <path d="M1022 162C1031 192 1034 219 1034 240C1060 225 1076 199 1069 175C1062 151 1044 146 1022 162Z" stroke="#C5BBB3" stroke-width="3"/>
</svg>
